# xmcd
#
# Track frame offsets: 
#        150
#        2562
#        20500
#        39542
#        54645
#        71205
#        84380
#        89175
#        102680
#        118152
#        131115
#        146317
#
# Disc length: 2211 seconds
#
# Revision: 1
# Processed by: cddbd v1.5.2PL0 Copyright (c) Steve Scherf et al.
# Submitted via: ExactAudioCopy v0.99pb5
#
DISCID=ae08a10c
DTITLE=Big Circo - Yo No Fui
DYEAR=2002
DGENRE=Latin
TTITLE0=Intro 1
TTITLE1=La Maquinita
TTITLE2=Nada De Ti
TTITLE3=Gracias Amor
TTITLE4=Me Canse
TTITLE5=Me Estoy Volviendo Loco
TTITLE6=Intro 2
TTITLE7=Yo No Fui
TTITLE8=Esa Eres Tu
TTITLE9=Seduccion
TTITLE10=Jamas Imagine
TTITLE11=Payaso
EXTD=
EXTT0=
EXTT1=
EXTT2=
EXTT3=
EXTT4=
EXTT5=
EXTT6=
EXTT7=
EXTT8=
EXTT9=
EXTT10=
EXTT11=
PLAYORDER=
